{
    "asset" : {
        "generator" : "Khronos glTF Blender I/O v1.6.16",
        "version" : "2.0"
    },
    "scene" : 0,
    "scenes" : [
        {
            "name" : "Scene",
            "nodes" : [
                0,
                1,
                2,
                3
            ]
        }
    ],
    "nodes" : [
        {
            "name" : "Light",
            "rotation" : [
                0.03518121317028999,
                0.349387526512146,
                -0.31147363781929016,
                0.8829919695854187
            ],
            "translation" : [
                4.076245307922363,
                5.903861999511719,
                -1.0054539442062378
            ]
        },
        {
            "name" : "Camera",
            "rotation" : [
                0.483536034822464,
                0.33687159419059753,
                -0.20870360732078552,
                0.7804827094078064
            ],
            "translation" : [
                7.358891487121582,
                4.958309173583984,
                6.925790786743164
            ]
        },
        {
            "mesh" : 0,
            "name" : "Icosphere",
            "scale" : [
                1.5195406675338745,
                1.5195406675338745,
                1.5195406675338745
            ]
        },
        {
            "name" : "Light.001",
            "rotation" : [
                -0.0435478650033474,
                -0.1083696037530899,
                0.8810462951660156,
                0.45838528871536255
            ],
            "translation" : [
                -9.119519233703613,
                -5.046478271484375,
                -6.143073558807373
            ]
        }
    ],
    "materials" : [
        {
            "doubleSided" : true,
            "name" : "Material.001",
            "pbrMetallicRoughness" : {
                "baseColorFactor" : [
                    0.2140345275402069,
                    0.19168947637081146,
                    0.17495182156562805,
                    1
                ],
                "metallicFactor" : 0,
                "roughnessFactor" : 0.75
            }
        }
    ],
    "meshes" : [
        {
            "name" : "Icosphere",
            "primitives" : [
                {
                    "attributes" : {
                        "POSITION" : 0,
                        "NORMAL" : 1,
                        "TEXCOORD_0" : 2
                    },
                    "indices" : 3,
                    "material" : 0
                }
            ]
        }
    ],
    "accessors" : [
        {
            "bufferView" : 0,
            "componentType" : 5126,
            "count" : 24576,
            "max" : [
                1.0050266981124878,
                1.029981017112732,
                1.0058181285858154
            ],
            "min" : [
                -1.0056124925613403,
                -0.9820573925971985,
                -1.0062600374221802
            ],
            "type" : "VEC3"
        },
        {
            "bufferView" : 1,
            "componentType" : 5126,
            "count" : 24576,
            "type" : "VEC3"
        },
        {
            "bufferView" : 2,
            "componentType" : 5126,
            "count" : 24576,
            "type" : "VEC2"
        },
        {
            "bufferView" : 3,
            "componentType" : 5123,
            "count" : 24576,
            "type" : "SCALAR"
        }
    ],
    "bufferViews" : [
        {
            "buffer" : 0,
            "byteLength" : 294912,
            "byteOffset" : 0
        },
        {
            "buffer" : 0,
            "byteLength" : 294912,
            "byteOffset" : 294912
        },
        {
            "buffer" : 0,
            "byteLength" : 196608,
            "byteOffset" : 589824
        },
        {
            "buffer" : 0,
            "byteLength" : 49152,
            "byteOffset" : 786432
        }
    ],
    "buffers" : [
        {
            "byteLength" : 835584,
            "uri" : "Lune.bin"
        }
    ]
}
