{
    "asset" : {
        "generator" : "Khronos glTF Blender I/O v1.6.16",
        "version" : "2.0"
    },
    "scene" : 0,
    "scenes" : [
        {
            "name" : "Scene",
            "nodes" : [
                0,
                1,
                2
            ]
        }
    ],
    "nodes" : [
        {
            "name" : "Camera",
            "rotation" : [
                0.483536034822464,
                0.33687159419059753,
                -0.20870360732078552,
                0.7804827094078064
            ],
            "translation" : [
                7.358891487121582,
                4.958309173583984,
                6.925790786743164
            ]
        },
        {
            "mesh" : 0,
            "name" : "Icosphere",
            "scale" : [
                9.819108009338379,
                9.819108009338379,
                9.819108009338379
            ]
        },
        {
            "name" : "Sun"
        }
    ],
    "materials" : [
        {
            "doubleSided" : true,
            "name" : "Material.001",
            "pbrMetallicRoughness" : {
                "baseColorFactor" : [
                    0.1473141759634018,
                    0.10180972516536713,
                    0.05301868915557861,
                    1
                ],
                "metallicFactor" : 0,
                "roughnessFactor" : 0.5
            }
        },
        {
            "doubleSided" : true,
            "name" : "Material.003",
            "pbrMetallicRoughness" : {
                "baseColorFactor" : [
                    0.08353164047002792,
                    0.06617090851068497,
                    0.051355328410863876,
                    1
                ],
                "metallicFactor" : 0,
                "roughnessFactor" : 0.5
            }
        },
        {
            "doubleSided" : true,
            "name" : "Material.002",
            "pbrMetallicRoughness" : {
                "baseColorFactor" : [
                    0.173355370759964,
                    0.10591041296720505,
                    0.04092325642704964,
                    1
                ],
                "metallicFactor" : 0,
                "roughnessFactor" : 0.5
            }
        },
        {
            "doubleSided" : true,
            "name" : "Material",
            "pbrMetallicRoughness" : {
                "baseColorFactor" : [
                    0.16794893145561218,
                    0.13310468196868896,
                    0.05554486811161041,
                    1
                ],
                "metallicFactor" : 0,
                "roughnessFactor" : 0.5
            }
        },
        {
            "doubleSided" : true,
            "name" : "Material.008",
            "pbrMetallicRoughness" : {
                "baseColorFactor" : [
                    0.42899999022483826,
                    0.34320002794265747,
                    0.39004677534103394,
                    1
                ],
                "metallicFactor" : 0,
                "roughnessFactor" : 0.5
            }
        },
        {
            "doubleSided" : true,
            "name" : "Material.009",
            "pbrMetallicRoughness" : {
                "baseColorFactor" : [
                    0.5490000247955322,
                    0.31740766763687134,
                    0.19379696249961853,
                    1
                ],
                "metallicFactor" : 0,
                "roughnessFactor" : 0.5
            }
        },
        {
            "doubleSided" : true,
            "name" : "Material.010",
            "pbrMetallicRoughness" : {
                "baseColorFactor" : [
                    0.0989999994635582,
                    0.0989999994635582,
                    0.0989999994635582,
                    1
                ],
                "metallicFactor" : 0,
                "roughnessFactor" : 0.5
            }
        },
        {
            "doubleSided" : true,
            "name" : "Material.011",
            "pbrMetallicRoughness" : {
                "baseColorFactor" : [
                    0.800000011920929,
                    0.3808208107948303,
                    0.35120001435279846,
                    1
                ],
                "metallicFactor" : 0,
                "roughnessFactor" : 0.5
            }
        }
    ],
    "meshes" : [
        {
            "name" : "Icosphere",
            "primitives" : [
                {
                    "attributes" : {
                        "POSITION" : 0,
                        "NORMAL" : 1,
                        "TEXCOORD_0" : 2
                    },
                    "indices" : 3,
                    "material" : 0
                },
                {
                    "attributes" : {
                        "POSITION" : 4,
                        "NORMAL" : 5,
                        "TEXCOORD_0" : 6
                    },
                    "indices" : 7,
                    "material" : 1
                },
                {
                    "attributes" : {
                        "POSITION" : 8,
                        "NORMAL" : 9,
                        "TEXCOORD_0" : 10
                    },
                    "indices" : 11,
                    "material" : 2
                },
                {
                    "attributes" : {
                        "POSITION" : 12,
                        "NORMAL" : 13,
                        "TEXCOORD_0" : 14
                    },
                    "indices" : 15,
                    "material" : 3
                },
                {
                    "attributes" : {
                        "POSITION" : 16,
                        "NORMAL" : 17,
                        "TEXCOORD_0" : 18
                    },
                    "indices" : 19,
                    "material" : 4
                },
                {
                    "attributes" : {
                        "POSITION" : 20,
                        "NORMAL" : 21,
                        "TEXCOORD_0" : 22
                    },
                    "indices" : 23,
                    "material" : 5
                },
                {
                    "attributes" : {
                        "POSITION" : 24,
                        "NORMAL" : 25,
                        "TEXCOORD_0" : 26
                    },
                    "indices" : 27,
                    "material" : 6
                },
                {
                    "attributes" : {
                        "POSITION" : 28,
                        "NORMAL" : 29,
                        "TEXCOORD_0" : 30
                    },
                    "indices" : 27,
                    "material" : 7
                }
            ]
        }
    ],
    "accessors" : [
        {
            "bufferView" : 0,
            "componentType" : 5126,
            "count" : 10722,
            "max" : [
                1.0078446865081787,
                0.99138343334198,
                0.9954766035079956
            ],
            "min" : [
                -1.0036778450012207,
                -1.013147234916687,
                -1.0032727718353271
            ],
            "type" : "VEC3"
        },
        {
            "bufferView" : 1,
            "componentType" : 5126,
            "count" : 10722,
            "type" : "VEC3"
        },
        {
            "bufferView" : 2,
            "componentType" : 5126,
            "count" : 10722,
            "type" : "VEC2"
        },
        {
            "bufferView" : 3,
            "componentType" : 5123,
            "count" : 10722,
            "type" : "SCALAR"
        },
        {
            "bufferView" : 4,
            "componentType" : 5126,
            "count" : 3807,
            "max" : [
                0.9728620648384094,
                0.7206786274909973,
                0.9522676467895508
            ],
            "min" : [
                -0.9359537959098816,
                0.24181464314460754,
                -0.9272537231445312
            ],
            "type" : "VEC3"
        },
        {
            "bufferView" : 5,
            "componentType" : 5126,
            "count" : 3807,
            "type" : "VEC3"
        },
        {
            "bufferView" : 6,
            "componentType" : 5126,
            "count" : 3807,
            "type" : "VEC2"
        },
        {
            "bufferView" : 7,
            "componentType" : 5123,
            "count" : 3807,
            "type" : "SCALAR"
        },
        {
            "bufferView" : 8,
            "componentType" : 5126,
            "count" : 2871,
            "max" : [
                2.5080268383026123,
                0.5722452998161316,
                2.4580271244049072
            ],
            "min" : [
                -2.508026599884033,
                -0.5722453594207764,
                -2.4580271244049072
            ],
            "type" : "VEC3"
        },
        {
            "bufferView" : 9,
            "componentType" : 5126,
            "count" : 2871,
            "type" : "VEC3"
        },
        {
            "bufferView" : 10,
            "componentType" : 5126,
            "count" : 2871,
            "type" : "VEC2"
        },
        {
            "bufferView" : 11,
            "componentType" : 5123,
            "count" : 2967,
            "type" : "SCALAR"
        },
        {
            "bufferView" : 12,
            "componentType" : 5126,
            "count" : 7368,
            "max" : [
                1.0094585418701172,
                0.24176527559757233,
                0.9992461800575256
            ],
            "min" : [
                -1.0060664415359497,
                -0.598276674747467,
                -1.012993335723877
            ],
            "type" : "VEC3"
        },
        {
            "bufferView" : 13,
            "componentType" : 5126,
            "count" : 7368,
            "type" : "VEC3"
        },
        {
            "bufferView" : 14,
            "componentType" : 5126,
            "count" : 7368,
            "type" : "VEC2"
        },
        {
            "bufferView" : 15,
            "componentType" : 5123,
            "count" : 7368,
            "type" : "SCALAR"
        },
        {
            "bufferView" : 16,
            "componentType" : 5126,
            "count" : 960,
            "max" : [
                2.5080268383026123,
                0.5722452998161316,
                2.4580271244049072
            ],
            "min" : [
                -2.508026599884033,
                -0.5722453594207764,
                -2.4580271244049072
            ],
            "type" : "VEC3"
        },
        {
            "bufferView" : 17,
            "componentType" : 5126,
            "count" : 960,
            "type" : "VEC3"
        },
        {
            "bufferView" : 18,
            "componentType" : 5126,
            "count" : 960,
            "type" : "VEC2"
        },
        {
            "bufferView" : 19,
            "componentType" : 5123,
            "count" : 1440,
            "type" : "SCALAR"
        },
        {
            "bufferView" : 20,
            "componentType" : 5126,
            "count" : 384,
            "max" : [
                1.7563462257385254,
                0.4150800406932831,
                1.7239292860031128
            ],
            "min" : [
                -1.7563462257385254,
                -0.4150800406932831,
                -1.7239292860031128
            ],
            "type" : "VEC3"
        },
        {
            "bufferView" : 21,
            "componentType" : 5126,
            "count" : 384,
            "type" : "VEC3"
        },
        {
            "bufferView" : 22,
            "componentType" : 5126,
            "count" : 384,
            "type" : "VEC2"
        },
        {
            "bufferView" : 23,
            "componentType" : 5123,
            "count" : 576,
            "type" : "SCALAR"
        },
        {
            "bufferView" : 24,
            "componentType" : 5126,
            "count" : 384,
            "max" : [
                2.2579517364501953,
                0.5295290946960449,
                2.2155349254608154
            ],
            "min" : [
                -2.257951498031616,
                -0.5295291543006897,
                -2.2155349254608154
            ],
            "type" : "VEC3"
        },
        {
            "bufferView" : 25,
            "componentType" : 5126,
            "count" : 384,
            "type" : "VEC3"
        },
        {
            "bufferView" : 26,
            "componentType" : 5126,
            "count" : 384,
            "type" : "VEC2"
        },
        {
            "bufferView" : 27,
            "componentType" : 5123,
            "count" : 576,
            "type" : "SCALAR"
        },
        {
            "bufferView" : 28,
            "componentType" : 5126,
            "count" : 384,
            "max" : [
                2.441244602203369,
                0.5652884840965271,
                2.394075632095337
            ],
            "min" : [
                -2.44124436378479,
                -0.5652884840965271,
                -2.394075632095337
            ],
            "type" : "VEC3"
        },
        {
            "bufferView" : 29,
            "componentType" : 5126,
            "count" : 384,
            "type" : "VEC3"
        },
        {
            "bufferView" : 30,
            "componentType" : 5126,
            "count" : 384,
            "type" : "VEC2"
        }
    ],
    "bufferViews" : [
        {
            "buffer" : 0,
            "byteLength" : 128664,
            "byteOffset" : 0
        },
        {
            "buffer" : 0,
            "byteLength" : 128664,
            "byteOffset" : 128664
        },
        {
            "buffer" : 0,
            "byteLength" : 85776,
            "byteOffset" : 257328
        },
        {
            "buffer" : 0,
            "byteLength" : 21444,
            "byteOffset" : 343104
        },
        {
            "buffer" : 0,
            "byteLength" : 45684,
            "byteOffset" : 364548
        },
        {
            "buffer" : 0,
            "byteLength" : 45684,
            "byteOffset" : 410232
        },
        {
            "buffer" : 0,
            "byteLength" : 30456,
            "byteOffset" : 455916
        },
        {
            "buffer" : 0,
            "byteLength" : 7614,
            "byteOffset" : 486372
        },
        {
            "buffer" : 0,
            "byteLength" : 34452,
            "byteOffset" : 493988
        },
        {
            "buffer" : 0,
            "byteLength" : 34452,
            "byteOffset" : 528440
        },
        {
            "buffer" : 0,
            "byteLength" : 22968,
            "byteOffset" : 562892
        },
        {
            "buffer" : 0,
            "byteLength" : 5934,
            "byteOffset" : 585860
        },
        {
            "buffer" : 0,
            "byteLength" : 88416,
            "byteOffset" : 591796
        },
        {
            "buffer" : 0,
            "byteLength" : 88416,
            "byteOffset" : 680212
        },
        {
            "buffer" : 0,
            "byteLength" : 58944,
            "byteOffset" : 768628
        },
        {
            "buffer" : 0,
            "byteLength" : 14736,
            "byteOffset" : 827572
        },
        {
            "buffer" : 0,
            "byteLength" : 11520,
            "byteOffset" : 842308
        },
        {
            "buffer" : 0,
            "byteLength" : 11520,
            "byteOffset" : 853828
        },
        {
            "buffer" : 0,
            "byteLength" : 7680,
            "byteOffset" : 865348
        },
        {
            "buffer" : 0,
            "byteLength" : 2880,
            "byteOffset" : 873028
        },
        {
            "buffer" : 0,
            "byteLength" : 4608,
            "byteOffset" : 875908
        },
        {
            "buffer" : 0,
            "byteLength" : 4608,
            "byteOffset" : 880516
        },
        {
            "buffer" : 0,
            "byteLength" : 3072,
            "byteOffset" : 885124
        },
        {
            "buffer" : 0,
            "byteLength" : 1152,
            "byteOffset" : 888196
        },
        {
            "buffer" : 0,
            "byteLength" : 4608,
            "byteOffset" : 889348
        },
        {
            "buffer" : 0,
            "byteLength" : 4608,
            "byteOffset" : 893956
        },
        {
            "buffer" : 0,
            "byteLength" : 3072,
            "byteOffset" : 898564
        },
        {
            "buffer" : 0,
            "byteLength" : 1152,
            "byteOffset" : 901636
        },
        {
            "buffer" : 0,
            "byteLength" : 4608,
            "byteOffset" : 902788
        },
        {
            "buffer" : 0,
            "byteLength" : 4608,
            "byteOffset" : 907396
        },
        {
            "buffer" : 0,
            "byteLength" : 3072,
            "byteOffset" : 912004
        }
    ],
    "buffers" : [
        {
            "byteLength" : 915076,
            "uri" : "Saturne.bin"
        }
    ]
}
