{
    "asset" : {
        "generator" : "Khronos glTF Blender I/O v1.5.17",
        "version" : "2.0"
    },
    "scene" : 0,
    "scenes" : [
        {
            "name" : "Scene",
            "nodes" : [
                0,
                1,
                2,
                3,
                4,
                5,
                6,
                7,
                8,
                9,
                10
            ]
        }
    ],
    "nodes" : [
        {
            "mesh" : 0,
            "name" : "Cube",
            "scale" : [
                0.2120901197195053,
                0.2120901197195053,
                0.2120901197195053
            ],
            "translation" : [
                0.021325597539544106,
                0,
                0.3838607966899872
            ]
        },
        {
            "mesh" : 1,
            "name" : "Cylinder",
            "rotation" : [
                0.7071068286895752,
                0,
                0,
                0.7071068286895752
            ],
            "scale" : [
                0.29275280237197876,
                0.29275280237197876,
                0.29275280237197876
            ]
        },
        {
            "mesh" : 2,
            "name" : "Cube.002",
            "scale" : [
                0.19103200733661652,
                0.026557013392448425,
                0.19103200733661652
            ],
            "translation" : [
                -1.9922988414764404,
                0,
                0.5417921543121338
            ]
        },
        {
            "mesh" : 3,
            "name" : "Cube.003",
            "scale" : [
                0.08761865645647049,
                0.08761865645647049,
                0.08761865645647049
            ],
            "translation" : [
                6.054389953613281,
                0,
                0.011242330074310303
            ]
        },
        {
            "mesh" : 4,
            "name" : "Cube.001",
            "scale" : [
                0.08761865645647049,
                0.08761865645647049,
                0.08761865645647049
            ],
            "translation" : [
                4.154726028442383,
                0,
                0.011242330074310303
            ]
        },
        {
            "mesh" : 5,
            "name" : "Cube.004",
            "rotation" : [
                0,
                0,
                -1,
                2.6618774427333847e-05
            ],
            "scale" : [
                0.08761865645647049,
                0.08761865645647049,
                0.08761865645647049
            ],
            "translation" : [
                -4.13484001159668,
                0,
                0.011242330074310303
            ]
        },
        {
            "mesh" : 6,
            "name" : "Cube.005",
            "rotation" : [
                0,
                0,
                -1,
                2.6618774427333847e-05
            ],
            "scale" : [
                0.08761865645647049,
                0.08761865645647049,
                0.08761865645647049
            ],
            "translation" : [
                -6.03891134262085,
                0,
                0.011242330074310303
            ]
        },
        {
            "mesh" : 7,
            "name" : "Cube.006",
            "rotation" : [
                9.545153443468735e-05,
                1,
                0,
                1.3223941906781445e-11
            ],
            "scale" : [
                0.08761865645647049,
                0.08761865645647049,
                0.08761865645647049
            ],
            "translation" : [
                -6.052072525024414,
                0,
                0.665755569934845
            ]
        },
        {
            "mesh" : 8,
            "name" : "Cube.007",
            "rotation" : [
                9.545153443468735e-05,
                1,
                0,
                1.3223941906781445e-11
            ],
            "scale" : [
                0.08761865645647049,
                0.08761865645647049,
                0.08761865645647049
            ],
            "translation" : [
                -4.193698883056641,
                0,
                0.665755569934845
            ]
        },
        {
            "mesh" : 9,
            "name" : "Cube.008",
            "rotation" : [
                1,
                -0.00016094115562736988,
                0,
                2.821299744937278e-07
            ],
            "scale" : [
                0.08761865645647049,
                0.08761865645647049,
                0.08761865645647049
            ],
            "translation" : [
                4.129282474517822,
                0,
                0.665755569934845
            ]
        },
        {
            "mesh" : 10,
            "name" : "Cube.009",
            "rotation" : [
                1,
                -0.00016094115562736988,
                0,
                2.821299744937278e-07
            ],
            "scale" : [
                0.08761865645647049,
                0.08761865645647049,
                0.08761865645647049
            ],
            "translation" : [
                6.020660400390625,
                0,
                0.665755569934845
            ]
        }
    ],
    "materials" : [
        {
            "doubleSided" : true,
            "name" : "Material",
            "pbrMetallicRoughness" : {
                "baseColorFactor" : [
                    0.800000011920929,
                    0.800000011920929,
                    0.800000011920929,
                    1
                ],
                "metallicFactor" : 0,
                "roughnessFactor" : 0.4000000059604645
            }
        }
    ],
    "meshes" : [
        {
            "name" : "Cube",
            "primitives" : [
                {
                    "attributes" : {
                        "POSITION" : 0,
                        "NORMAL" : 1,
                        "TEXCOORD_0" : 2
                    },
                    "indices" : 3,
                    "material" : 0
                }
            ]
        },
        {
            "name" : "Cylinder.004",
            "primitives" : [
                {
                    "attributes" : {
                        "POSITION" : 4,
                        "NORMAL" : 5,
                        "TEXCOORD_0" : 6
                    },
                    "indices" : 7
                }
            ]
        },
        {
            "name" : "Cube.002",
            "primitives" : [
                {
                    "attributes" : {
                        "POSITION" : 8,
                        "NORMAL" : 9,
                        "TEXCOORD_0" : 10
                    },
                    "indices" : 11
                }
            ]
        },
        {
            "name" : "Cube.003",
            "primitives" : [
                {
                    "attributes" : {
                        "POSITION" : 12,
                        "NORMAL" : 13,
                        "TEXCOORD_0" : 14
                    },
                    "indices" : 15
                }
            ]
        },
        {
            "name" : "Cube.010",
            "primitives" : [
                {
                    "attributes" : {
                        "POSITION" : 16,
                        "NORMAL" : 17,
                        "TEXCOORD_0" : 18
                    },
                    "indices" : 15
                }
            ]
        },
        {
            "name" : "Cube.011",
            "primitives" : [
                {
                    "attributes" : {
                        "POSITION" : 19,
                        "NORMAL" : 20,
                        "TEXCOORD_0" : 21
                    },
                    "indices" : 15
                }
            ]
        },
        {
            "name" : "Cube.012",
            "primitives" : [
                {
                    "attributes" : {
                        "POSITION" : 22,
                        "NORMAL" : 23,
                        "TEXCOORD_0" : 24
                    },
                    "indices" : 15
                }
            ]
        },
        {
            "name" : "Cube.013",
            "primitives" : [
                {
                    "attributes" : {
                        "POSITION" : 25,
                        "NORMAL" : 26,
                        "TEXCOORD_0" : 27
                    },
                    "indices" : 15
                }
            ]
        },
        {
            "name" : "Cube.014",
            "primitives" : [
                {
                    "attributes" : {
                        "POSITION" : 28,
                        "NORMAL" : 29,
                        "TEXCOORD_0" : 30
                    },
                    "indices" : 15
                }
            ]
        },
        {
            "name" : "Cube.015",
            "primitives" : [
                {
                    "attributes" : {
                        "POSITION" : 31,
                        "NORMAL" : 32,
                        "TEXCOORD_0" : 33
                    },
                    "indices" : 15
                }
            ]
        },
        {
            "name" : "Cube.016",
            "primitives" : [
                {
                    "attributes" : {
                        "POSITION" : 34,
                        "NORMAL" : 35,
                        "TEXCOORD_0" : 36
                    },
                    "indices" : 15
                }
            ]
        }
    ],
    "accessors" : [
        {
            "bufferView" : 0,
            "componentType" : 5126,
            "count" : 175,
            "max" : [
                29.804134368896484,
                0.5707905888557434,
                1.0403639078140259
            ],
            "min" : [
                0,
                -0.03536233305931091,
                -1
            ],
            "type" : "VEC3"
        },
        {
            "bufferView" : 1,
            "componentType" : 5126,
            "count" : 175,
            "type" : "VEC3"
        },
        {
            "bufferView" : 2,
            "componentType" : 5126,
            "count" : 175,
            "type" : "VEC2"
        },
        {
            "bufferView" : 3,
            "componentType" : 5123,
            "count" : 324,
            "type" : "SCALAR"
        },
        {
            "bufferView" : 4,
            "componentType" : 5126,
            "count" : 48194,
            "max" : [
                6.6490092277526855,
                17.870140075683594,
                1.399567723274231
            ],
            "min" : [
                -6.607536315917969,
                -5.527885437011719,
                -1.399567723274231
            ],
            "type" : "VEC3"
        },
        {
            "bufferView" : 5,
            "componentType" : 5126,
            "count" : 48194,
            "type" : "VEC3"
        },
        {
            "bufferView" : 6,
            "componentType" : 5126,
            "count" : 48194,
            "type" : "VEC2"
        },
        {
            "bufferView" : 7,
            "componentType" : 5123,
            "count" : 75264,
            "type" : "SCALAR"
        },
        {
            "bufferView" : 8,
            "componentType" : 5126,
            "count" : 1416,
            "max" : [
                24.12922477722168,
                1,
                14.236055374145508
            ],
            "min" : [
                -3.118478775024414,
                -1,
                -1
            ],
            "type" : "VEC3"
        },
        {
            "bufferView" : 9,
            "componentType" : 5126,
            "count" : 1416,
            "type" : "VEC3"
        },
        {
            "bufferView" : 10,
            "componentType" : 5126,
            "count" : 1416,
            "type" : "VEC2"
        },
        {
            "bufferView" : 11,
            "componentType" : 5123,
            "count" : 2310,
            "type" : "SCALAR"
        },
        {
            "bufferView" : 12,
            "componentType" : 5126,
            "count" : 162,
            "max" : [
                8.14658260345459,
                0.27551257610321045,
                2.033484935760498
            ],
            "min" : [
                -8.246603012084961,
                0,
                -48.82720947265625
            ],
            "type" : "VEC3"
        },
        {
            "bufferView" : 13,
            "componentType" : 5126,
            "count" : 162,
            "type" : "VEC3"
        },
        {
            "bufferView" : 14,
            "componentType" : 5126,
            "count" : 162,
            "type" : "VEC2"
        },
        {
            "bufferView" : 15,
            "componentType" : 5123,
            "count" : 336,
            "type" : "SCALAR"
        },
        {
            "bufferView" : 16,
            "componentType" : 5126,
            "count" : 162,
            "max" : [
                8.14658260345459,
                0.27551257610321045,
                2.033484935760498
            ],
            "min" : [
                -8.246603012084961,
                0,
                -48.82720947265625
            ],
            "type" : "VEC3"
        },
        {
            "bufferView" : 17,
            "componentType" : 5126,
            "count" : 162,
            "type" : "VEC3"
        },
        {
            "bufferView" : 18,
            "componentType" : 5126,
            "count" : 162,
            "type" : "VEC2"
        },
        {
            "bufferView" : 19,
            "componentType" : 5126,
            "count" : 162,
            "max" : [
                8.14658260345459,
                0.27551257610321045,
                2.033484935760498
            ],
            "min" : [
                -8.246603012084961,
                0,
                -48.82720947265625
            ],
            "type" : "VEC3"
        },
        {
            "bufferView" : 20,
            "componentType" : 5126,
            "count" : 162,
            "type" : "VEC3"
        },
        {
            "bufferView" : 21,
            "componentType" : 5126,
            "count" : 162,
            "type" : "VEC2"
        },
        {
            "bufferView" : 22,
            "componentType" : 5126,
            "count" : 162,
            "max" : [
                8.14658260345459,
                0.27551257610321045,
                2.033484935760498
            ],
            "min" : [
                -8.246603012084961,
                0,
                -48.82720947265625
            ],
            "type" : "VEC3"
        },
        {
            "bufferView" : 23,
            "componentType" : 5126,
            "count" : 162,
            "type" : "VEC3"
        },
        {
            "bufferView" : 24,
            "componentType" : 5126,
            "count" : 162,
            "type" : "VEC2"
        },
        {
            "bufferView" : 25,
            "componentType" : 5126,
            "count" : 162,
            "max" : [
                8.14658260345459,
                0.27551257610321045,
                2.033484935760498
            ],
            "min" : [
                -8.246603012084961,
                0,
                -48.82720947265625
            ],
            "type" : "VEC3"
        },
        {
            "bufferView" : 26,
            "componentType" : 5126,
            "count" : 162,
            "type" : "VEC3"
        },
        {
            "bufferView" : 27,
            "componentType" : 5126,
            "count" : 162,
            "type" : "VEC2"
        },
        {
            "bufferView" : 28,
            "componentType" : 5126,
            "count" : 162,
            "max" : [
                8.14658260345459,
                0.27551257610321045,
                2.033484935760498
            ],
            "min" : [
                -8.246603012084961,
                0,
                -48.82720947265625
            ],
            "type" : "VEC3"
        },
        {
            "bufferView" : 29,
            "componentType" : 5126,
            "count" : 162,
            "type" : "VEC3"
        },
        {
            "bufferView" : 30,
            "componentType" : 5126,
            "count" : 162,
            "type" : "VEC2"
        },
        {
            "bufferView" : 31,
            "componentType" : 5126,
            "count" : 162,
            "max" : [
                8.14658260345459,
                0.27551257610321045,
                2.033484935760498
            ],
            "min" : [
                -8.246603012084961,
                0,
                -48.82720947265625
            ],
            "type" : "VEC3"
        },
        {
            "bufferView" : 32,
            "componentType" : 5126,
            "count" : 162,
            "type" : "VEC3"
        },
        {
            "bufferView" : 33,
            "componentType" : 5126,
            "count" : 162,
            "type" : "VEC2"
        },
        {
            "bufferView" : 34,
            "componentType" : 5126,
            "count" : 162,
            "max" : [
                8.14658260345459,
                0.27551257610321045,
                2.033484935760498
            ],
            "min" : [
                -8.246603012084961,
                0,
                -48.82720947265625
            ],
            "type" : "VEC3"
        },
        {
            "bufferView" : 35,
            "componentType" : 5126,
            "count" : 162,
            "type" : "VEC3"
        },
        {
            "bufferView" : 36,
            "componentType" : 5126,
            "count" : 162,
            "type" : "VEC2"
        }
    ],
    "bufferViews" : [
        {
            "buffer" : 0,
            "byteLength" : 2100,
            "byteOffset" : 0
        },
        {
            "buffer" : 0,
            "byteLength" : 2100,
            "byteOffset" : 2100
        },
        {
            "buffer" : 0,
            "byteLength" : 1400,
            "byteOffset" : 4200
        },
        {
            "buffer" : 0,
            "byteLength" : 648,
            "byteOffset" : 5600
        },
        {
            "buffer" : 0,
            "byteLength" : 578328,
            "byteOffset" : 6248
        },
        {
            "buffer" : 0,
            "byteLength" : 578328,
            "byteOffset" : 584576
        },
        {
            "buffer" : 0,
            "byteLength" : 385552,
            "byteOffset" : 1162904
        },
        {
            "buffer" : 0,
            "byteLength" : 150528,
            "byteOffset" : 1548456
        },
        {
            "buffer" : 0,
            "byteLength" : 16992,
            "byteOffset" : 1698984
        },
        {
            "buffer" : 0,
            "byteLength" : 16992,
            "byteOffset" : 1715976
        },
        {
            "buffer" : 0,
            "byteLength" : 11328,
            "byteOffset" : 1732968
        },
        {
            "buffer" : 0,
            "byteLength" : 4620,
            "byteOffset" : 1744296
        },
        {
            "buffer" : 0,
            "byteLength" : 1944,
            "byteOffset" : 1748916
        },
        {
            "buffer" : 0,
            "byteLength" : 1944,
            "byteOffset" : 1750860
        },
        {
            "buffer" : 0,
            "byteLength" : 1296,
            "byteOffset" : 1752804
        },
        {
            "buffer" : 0,
            "byteLength" : 672,
            "byteOffset" : 1754100
        },
        {
            "buffer" : 0,
            "byteLength" : 1944,
            "byteOffset" : 1754772
        },
        {
            "buffer" : 0,
            "byteLength" : 1944,
            "byteOffset" : 1756716
        },
        {
            "buffer" : 0,
            "byteLength" : 1296,
            "byteOffset" : 1758660
        },
        {
            "buffer" : 0,
            "byteLength" : 1944,
            "byteOffset" : 1759956
        },
        {
            "buffer" : 0,
            "byteLength" : 1944,
            "byteOffset" : 1761900
        },
        {
            "buffer" : 0,
            "byteLength" : 1296,
            "byteOffset" : 1763844
        },
        {
            "buffer" : 0,
            "byteLength" : 1944,
            "byteOffset" : 1765140
        },
        {
            "buffer" : 0,
            "byteLength" : 1944,
            "byteOffset" : 1767084
        },
        {
            "buffer" : 0,
            "byteLength" : 1296,
            "byteOffset" : 1769028
        },
        {
            "buffer" : 0,
            "byteLength" : 1944,
            "byteOffset" : 1770324
        },
        {
            "buffer" : 0,
            "byteLength" : 1944,
            "byteOffset" : 1772268
        },
        {
            "buffer" : 0,
            "byteLength" : 1296,
            "byteOffset" : 1774212
        },
        {
            "buffer" : 0,
            "byteLength" : 1944,
            "byteOffset" : 1775508
        },
        {
            "buffer" : 0,
            "byteLength" : 1944,
            "byteOffset" : 1777452
        },
        {
            "buffer" : 0,
            "byteLength" : 1296,
            "byteOffset" : 1779396
        },
        {
            "buffer" : 0,
            "byteLength" : 1944,
            "byteOffset" : 1780692
        },
        {
            "buffer" : 0,
            "byteLength" : 1944,
            "byteOffset" : 1782636
        },
        {
            "buffer" : 0,
            "byteLength" : 1296,
            "byteOffset" : 1784580
        },
        {
            "buffer" : 0,
            "byteLength" : 1944,
            "byteOffset" : 1785876
        },
        {
            "buffer" : 0,
            "byteLength" : 1944,
            "byteOffset" : 1787820
        },
        {
            "buffer" : 0,
            "byteLength" : 1296,
            "byteOffset" : 1789764
        }
    ],
    "buffers" : [
        {
            "byteLength" : 1791060,
            "uri" : "data:application/octet-stream;base64,"
        }
    ]
}
